<svg width="41" height="42" viewBox="0 0 41 42" fill="none" xmlns="http://www.w3.org/2000/svg">
<g id="Section-10/Email">
<circle id="Ellipse 18" cx="20.4638" cy="21.3913" r="19.9641" stroke="#ED1B24" stroke-width="0.999306"/>
<g id="mail">
<mask id="mask0_233_248" style="mask-type:alpha" maskUnits="userSpaceOnUse" x="8" y="9" width="24" height="24">
<rect id="Bounding box" x="8.97461" y="9.89783" width="22.4347" height="22.4347" fill="white"/>
</mask>
<g mask="url(#mask0_233_248)">
<g id="mail_2">
<path d="M12.7123 28.5934C12.1982 28.5934 11.7582 28.4105 11.3924 28.0447C11.026 27.6783 10.8428 27.238 10.8428 26.7239V15.5065C10.8428 14.9924 11.026 14.5524 11.3924 14.1866C11.7582 13.8202 12.1982 13.637 12.7123 13.637H27.6688C28.1829 13.637 28.6232 13.8202 28.9896 14.1866C29.3554 14.5524 29.5383 14.9924 29.5383 15.5065V26.7239C29.5383 27.238 29.3554 27.6783 28.9896 28.0447C28.6232 28.4105 28.1829 28.5934 27.6688 28.5934H12.7123ZM20.1906 22.05L12.7123 17.3761V26.7239H27.6688V17.3761L20.1906 22.05ZM20.1906 20.1804L27.6688 15.5065H12.7123L20.1906 20.1804ZM12.7123 17.3761V15.5065V26.7239V17.3761Z" fill="#ED1B24"/>
</g>
</g>
</g>
</g>
</svg>
