<svg width="41" height="41" viewBox="0 0 41 41" fill="none" xmlns="http://www.w3.org/2000/svg">
<g id="Section-10/Phone">
<circle id="Ellipse 16" cx="20.4638" cy="20.4638" r="19.9641" stroke="#ED1B24" stroke-width="0.999306"/>
<g id="call">
<mask id="mask0_233_243" style="mask-type:alpha" maskUnits="userSpaceOnUse" x="8" y="8" width="24" height="24">
<rect id="Bounding box" x="8.97461" y="8.97083" width="22.4347" height="22.4347" fill="white"/>
</mask>
<g mask="url(#mask0_233_243)">
<g id="call_2">
<path d="M27.6238 28.6014C25.614 28.6014 23.655 28.1533 21.7468 27.2572C19.838 26.3617 18.1476 25.1776 16.6757 23.705C15.2031 22.2331 14.019 20.5427 13.1235 18.6339C12.2274 16.7257 11.7793 14.7667 11.7793 12.7569C11.7793 12.4765 11.8728 12.2428 12.0597 12.0558C12.2467 11.8689 12.4804 11.7754 12.7608 11.7754H16.5467C16.7648 11.7754 16.9595 11.8455 17.1309 11.9857C17.3023 12.1259 17.4035 12.3051 17.4347 12.5232L18.0423 15.7949C18.0735 16.0131 18.0697 16.2115 18.0311 16.3904C17.9918 16.5699 17.9021 16.7297 17.7619 16.8699L15.495 19.1601C16.1494 20.2819 16.9714 21.3335 17.961 22.315C18.95 23.2965 20.0365 24.1456 21.2206 24.8623L23.4173 22.6656C23.5575 22.5253 23.7407 22.42 23.9669 22.3496C24.1925 22.2798 24.4144 22.2605 24.6325 22.2916L27.8575 22.946C28.0756 22.9927 28.2548 23.0977 28.395 23.261C28.5352 23.4249 28.6053 23.6159 28.6053 23.834V27.6199C28.6053 27.9003 28.5118 28.134 28.3249 28.321C28.1379 28.5079 27.9042 28.6014 27.6238 28.6014ZM14.607 17.3841L16.1494 15.8417L15.7521 13.6449H13.6722C13.7501 14.2837 13.8592 14.9147 13.9994 15.5379C14.1396 16.1611 14.3421 16.7765 14.607 17.3841ZM26.7358 26.6851V24.6286L24.539 24.1846L22.9733 25.7503C23.5809 26.0152 24.2003 26.2255 24.8316 26.3813C25.4623 26.5371 26.097 26.6384 26.7358 26.6851Z" fill="#ED1B24"/>
</g>
</g>
</g>
</g>
</svg>
