<svg width="60" height="56" viewBox="0 0 60 56" fill="none" xmlns="http://www.w3.org/2000/svg">
<g id="Section-3/Section-3-Icon-3">
<path id="Vector" d="M27.9841 12.2512C29.2188 14.0278 30.4845 17.9705 33.5551 19.6864C35.2852 20.7649 37.3584 21.1509 39.3608 20.7676C38.4847 19.8592 37.8905 18.7165 37.65 17.4777C37.1491 14.99 37.5132 12.4058 38.6822 10.1534C32.4558 5.52562 23.1589 8.28012 23.1589 8.28012C25.0528 9.21288 26.7045 10.5722 27.9841 12.2512ZM30.6561 10.574C30.7027 10.4559 30.7722 10.3481 30.8606 10.2568C30.949 10.1655 31.0545 10.0926 31.1711 10.0421C31.2877 9.99169 31.4131 9.96472 31.5401 9.96279C31.6671 9.96086 31.7933 9.98399 31.9114 10.0309C33.5127 10.7175 35.0424 11.5602 36.4786 12.5467C36.6854 12.6923 36.8271 12.9131 36.8731 13.1618C36.9192 13.4105 36.866 13.6674 36.725 13.8774C36.584 14.0874 36.3663 14.2339 36.1187 14.2853C35.871 14.3368 35.613 14.2893 35.4 14.1529C34.0765 13.2466 32.6694 12.469 31.1979 11.8306C31.0794 11.7837 30.9713 11.7139 30.8798 11.625C30.7883 11.5362 30.7153 11.4302 30.665 11.313C30.6146 11.1959 30.5879 11.07 30.5864 10.9425C30.5848 10.815 30.6085 10.6885 30.6561 10.5702V10.574Z" fill="#ED1B24"/>
<path id="Vector_2" d="M44.2362 20.956C45.5893 20.9275 46.9205 20.6087 48.1396 20.0211C49.3587 19.4334 50.4374 18.5907 51.3025 17.5499C54.195 14.4535 54.1989 9.47223 54.9639 6.98222C55.8164 4.58776 57.2129 2.42376 59.0434 0.660431C59.0434 0.660431 47.2746 0.909432 41.8585 8.58718C39.0885 12.5131 39.1853 15.1593 39.5568 17.119C39.7678 18.2035 40.3507 19.1803 41.2051 19.8808C42.0594 20.5813 43.1315 20.9616 44.2362 20.956ZM41.6495 16.3643C42.5761 14.4599 43.6779 12.6458 44.9407 10.9456C46.804 8.43545 48.9402 6.13995 51.3102 4.10129C51.5084 3.94901 51.7578 3.87932 52.0062 3.90682C52.2546 3.93431 52.4828 4.05686 52.6428 4.24879C52.8029 4.44072 52.8825 4.68715 52.865 4.93647C52.8475 5.18578 52.7341 5.41864 52.5487 5.58627C50.3068 7.5285 48.2823 9.7083 46.5108 12.0874C45.324 13.678 44.2874 15.3754 43.4144 17.1577C43.3072 17.3886 43.1133 17.5678 42.8747 17.6567C42.6362 17.7456 42.3723 17.7369 42.1401 17.6325C41.908 17.5281 41.7263 17.3365 41.6345 17.0991C41.5426 16.8617 41.548 16.5977 41.6495 16.3643Z" fill="#ED1B24"/>
<path id="Vector_3" d="M17.3678 49.3802C18.732 46.089 17.1698 42.3149 13.8786 40.9507C10.5873 39.5865 6.81328 41.1486 5.44905 44.4399C4.08481 47.7311 5.64698 51.5052 8.93823 52.8694C12.2295 54.2336 16.0035 52.6715 17.3678 49.3802Z" fill="#ED1B24"/>
<path id="Vector_4" d="M54.942 49.3772C56.3062 46.0859 54.744 42.3119 51.4528 40.9477C48.1615 39.5834 44.3875 41.1456 43.0233 44.4369C41.659 47.7281 43.2212 51.5022 46.5125 52.8664C49.8037 54.2306 53.5777 52.6685 54.942 49.3772Z" fill="#ED1B24"/>
<path id="Vector_5" d="M43.7448 25.6625C43.8974 25.4557 44.003 25.2181 44.0543 24.9663C44.1055 24.7145 44.1012 24.4545 44.0415 24.2046L43.6454 22.8538C42.9051 22.7777 42.1819 22.5825 41.5038 22.2758L39.784 22.6628C39.1612 22.8008 38.5253 22.8705 37.8874 22.8706C36.0305 22.8349 34.2139 22.3227 32.612 21.383C30.7854 20.2607 29.294 18.6681 28.2938 16.772C28.1648 16.8029 28.0177 16.8261 27.8913 16.8584C22.9758 18.097 13.5705 25.6057 10.3967 28.2118L9.88062 28.6453L42.4443 26.3862C42.7006 26.3672 42.9497 26.2925 43.1742 26.1676C43.3988 26.0426 43.5935 25.8702 43.7448 25.6625Z" fill="#ED1B24"/>
<path id="Vector_6" d="M58.6564 30.6244C56.9353 25.1012 55.1252 21.0385 52.8378 18.7214C50.9759 20.8616 48.4353 22.2972 45.6413 22.788L45.9109 23.7092C46.0434 24.2346 46.059 24.7826 45.9566 25.3147C45.8542 25.8468 45.6363 26.35 45.3182 26.7887C45.0002 27.2274 44.5898 27.591 44.116 27.8538C43.6421 28.1167 43.1164 28.2723 42.5758 28.3099L6.58035 30.8076C4.45158 32.241 1.70483 34.3852 0.784944 36.4211C-0.20848 38.6015 -0.0665626 42.1494 0.178568 44.5104C0.248663 45.1662 0.558946 45.7729 1.04965 46.2136C1.54035 46.6543 2.17676 46.8978 2.8363 46.8972H3.01434C3.01434 44.6731 3.89787 42.5401 5.47056 40.9674C7.04325 39.3947 9.17627 38.5112 11.4004 38.5112C13.6245 38.5112 15.7575 39.3947 17.3302 40.9674C18.9029 42.5401 19.7864 44.6731 19.7864 46.8972H40.5761C40.5725 44.6731 41.4526 42.5387 43.0227 40.9634C44.5929 39.3882 46.7245 38.5012 48.9486 38.4976C51.1727 38.494 53.3072 39.3741 54.8824 40.9443C56.4576 42.5144 57.3446 44.646 57.3482 46.8701C57.9265 46.7962 58.4647 46.5349 58.8806 46.1263C59.2964 45.7177 59.5671 45.1841 59.6511 44.6072C59.6782 44.3582 59.793 43.3428 59.8343 42.9416C60.2613 38.7984 59.8609 34.6116 58.6564 30.6244ZM34.373 36.5682L31.4301 40.9844C31.2865 41.1948 31.0656 41.3401 30.8155 41.3887C30.5654 41.4373 30.3062 41.3853 30.0942 41.244C29.8822 41.1026 29.7346 40.8834 29.6832 40.6338C29.6319 40.3843 29.681 40.1245 29.82 39.911L31.7553 36.9991H29.153C28.9779 36.9991 28.806 36.9516 28.6558 36.8615C28.5056 36.7715 28.3826 36.6425 28.2999 36.4881C28.2173 36.3336 28.1781 36.1597 28.1866 35.9848C28.195 35.8098 28.2508 35.6405 28.3479 35.4948L31.2869 31.0811C31.4306 30.8707 31.6514 30.7254 31.9015 30.6768C32.1517 30.6282 32.4108 30.6803 32.6228 30.8216C32.8348 30.9629 32.9825 31.1822 33.0339 31.4317C33.0852 31.6813 33.036 31.941 32.8971 32.1545L30.9618 35.0639H33.5679C33.7431 35.0639 33.9149 35.1114 34.0651 35.2014C34.2154 35.2914 34.3384 35.4205 34.421 35.5749C34.5036 35.7293 34.5428 35.9033 34.5344 36.0782C34.5259 36.2531 34.4701 36.4225 34.373 36.5682Z" fill="#ED1B24"/>
</g>
</svg>
