<svg width="60" height="62" viewBox="0 0 60 62" fill="none" xmlns="http://www.w3.org/2000/svg">
<g id="Section-3/Section-3-Icon-2">
<path id="Vector" d="M39.9874 8.5942L40.5244 10.0289L41.0615 8.5942C41.2857 7.99507 41.6359 7.45103 42.0884 6.99878C42.5409 6.54654 43.0851 6.19662 43.6843 5.97265L45.1112 5.43563L43.6843 4.8986C43.0855 4.67403 42.5418 4.32372 42.0898 3.87128C41.6378 3.41884 41.288 2.87478 41.064 2.27575L40.527 0.841095L39.9874 2.27575C39.7634 2.87478 39.4137 3.41884 38.9617 3.87128C38.5097 4.32372 37.966 4.67403 37.3672 4.8986L35.9325 5.43563L37.3672 5.97265C37.9659 6.19693 38.5096 6.54699 38.9616 6.99922C39.4136 7.45145 39.7634 7.99533 39.9874 8.5942Z" fill="#ED1B24"/>
<path id="Vector_2" d="M49.9457 13.8697L50.3517 14.9568L50.7538 13.8697C50.9237 13.4153 51.1891 13.0026 51.5321 12.6595C51.8752 12.3164 52.2879 12.051 52.7424 11.8812L53.8294 11.4739L52.7424 11.0666C52.2879 10.8968 51.8752 10.6313 51.5321 10.2883C51.1891 9.94522 50.9237 9.53251 50.7538 9.07805L50.3465 7.99103L49.9405 9.07805C49.7703 9.5323 49.5048 9.94482 49.1617 10.2878C48.8187 10.6308 48.4062 10.8964 47.952 11.0666L46.8636 11.4739L47.952 11.8812C48.4072 12.0508 48.8207 12.316 49.1646 12.6591C49.5086 13.0021 49.7749 13.415 49.9457 13.8697Z" fill="#ED1B24"/>
<path id="Vector_3" d="M56.0229 7.83018L56.4289 8.91849L56.8362 7.83018C57.0064 7.37592 57.272 6.96341 57.615 6.62039C57.958 6.27738 58.3705 6.01184 58.8248 5.84164L59.9118 5.43563L58.8248 5.02832C58.3703 4.85849 57.9576 4.59307 57.6145 4.25001C57.2715 3.90695 57.006 3.49424 56.8362 3.03978L56.4289 1.95276L56.0229 3.03978C55.8527 3.49403 55.5872 3.90655 55.2441 4.24956C54.9011 4.59257 54.4886 4.85812 54.0344 5.02832L52.946 5.43563L54.0344 5.84164C54.4884 6.01228 54.9006 6.27798 55.2436 6.62094C55.5866 6.96389 55.8523 7.37618 56.0229 7.83018Z" fill="#ED1B24"/>
<path id="Vector_4" d="M50.5995 57.1416V59.8436C50.5995 60.0169 50.6337 60.1884 50.7002 60.3484C50.7667 60.5084 50.8642 60.6537 50.987 60.776C51.1099 60.8982 51.2556 60.9949 51.4159 61.0606C51.5763 61.1264 51.748 61.1598 51.9213 61.1589H56.9802C57.329 61.1589 57.6636 61.0203 57.9103 60.7737C58.1569 60.527 58.2955 60.1924 58.2955 59.8436V54.6355C57.4605 55.4745 56.46 56.1306 55.3577 56.562C54.2555 56.9935 53.0754 57.1908 51.8928 57.1416H50.5995Z" fill="#ED1B24"/>
<path id="Vector_5" d="M1.63318 54.559V59.8436C1.63318 60.1924 1.77176 60.527 2.01843 60.7736C2.2651 61.0203 2.59965 61.1589 2.9485 61.1589H8.00741C8.35625 61.1589 8.69081 61.0203 8.93748 60.7736C9.18415 60.527 9.32273 60.1924 9.32273 59.8436V57.1416H8.10988C6.9091 57.1934 5.71099 56.99 4.59458 56.5448C3.47817 56.0996 2.46884 55.4228 1.63318 54.559Z" fill="#ED1B24"/>
<path id="Vector_6" d="M1.67078 49.2899C1.67078 53.0179 4.26509 55.1907 8.10986 55.1907H51.8902C55.7298 55.1907 58.3293 53.0179 58.3293 49.2899V48.2133H1.67078V49.2899Z" fill="#ED1B24"/>
<path id="Vector_7" d="M58.926 25.2925L55.6831 24.7295C55.424 24.6843 55.1574 24.7278 54.9262 24.8531C54.695 24.9783 54.5128 25.178 54.4093 25.4196L53.4001 27.7013L52.9902 27.0761L50.1468 20.3633C49.6882 19.2743 48.9599 18.32 48.0307 17.5902C47.1014 16.8603 46.0016 16.3791 44.8349 16.1916C39.9253 15.4462 34.9652 15.0841 29.9994 15.1085C25.0339 15.0853 20.0741 15.4488 15.1651 16.1955C13.9973 16.382 12.8962 16.8629 11.9658 17.5928C11.0353 18.3226 10.306 19.2774 9.84672 20.3672L7.00984 27.0696L6.60642 27.6858L5.59075 25.4131C5.48716 25.1715 5.30502 24.9719 5.07383 24.8466C4.84265 24.7214 4.57595 24.6778 4.31694 24.723L1.07275 25.2925C0.773059 25.3409 0.500443 25.4946 0.303837 25.7259C0.10723 25.9572 -0.000493602 26.2511 1.70043e-06 26.5546V27.1915C6.27062e-05 27.4838 0.100045 27.7673 0.283366 27.995C0.466687 28.2227 0.72233 28.3809 1.00789 28.4433L5.44936 29.459L3.32202 32.7019C2.24541 34.3437 1.67192 36.2644 1.67204 38.2277V46.2701H58.3293V38.2277C58.3289 36.2643 57.755 34.3436 56.678 32.7019L54.5429 29.4434L58.9921 28.4407C59.2777 28.3783 59.5333 28.2201 59.7166 27.9924C59.9 27.7648 59.9999 27.4812 60 27.1889V26.552C59.9998 26.2487 59.8916 25.9554 59.6948 25.7246C59.498 25.4938 59.2254 25.3406 58.926 25.2925ZM11.6433 21.1273C11.971 20.3403 12.4949 19.6504 13.165 19.1233C13.8351 18.5963 14.6291 18.2497 15.4712 18.1166C20.2791 17.3869 25.1364 17.0317 29.9994 17.0543C34.8623 17.0317 39.7196 17.3869 44.5275 18.1166C45.369 18.2501 46.1622 18.5967 46.8318 19.1235C47.5014 19.6503 48.025 20.3396 48.3528 21.126L50.5385 26.2809H9.45757L11.6433 21.1273ZM7.51703 39.9361C7.1357 39.8805 6.77986 39.7117 6.49561 39.4515C6.21137 39.1913 6.01182 38.8517 5.92282 38.4768C5.80556 38.0395 5.75957 37.5862 5.78662 37.1342C5.89169 35.9668 6.25878 35.3922 7.00076 35.3922C7.00076 35.3922 12.0882 35.7087 12.7757 35.9201C13.4632 36.1315 16.1016 41.1476 16.1016 41.1476L7.51703 39.9361ZM40.1068 41.8818L29.9371 42.463L19.8919 41.8961L17.33 36.4623C17.33 36.4623 26.3543 37.2484 29.9981 37.2484C33.6418 37.2484 42.6687 36.4623 42.6687 36.4623L40.1068 41.8818ZM54.0746 38.482C53.9856 38.8569 53.786 39.1965 53.5018 39.4567C53.2175 39.7169 52.8617 39.8857 52.4804 39.9413L43.8958 41.1528C43.8958 41.1528 46.5355 36.1367 47.223 35.9253C47.9105 35.7139 52.9967 35.3974 52.9967 35.3974C53.7399 35.3974 54.1057 35.9772 54.2108 37.1394C54.2378 37.5914 54.1919 38.0447 54.0746 38.482Z" fill="#ED1B24"/>
</g>
</svg>
