<svg width="60" height="56" viewBox="0 0 60 56" fill="none" xmlns="http://www.w3.org/2000/svg">
<g id="Section-3/Section-3-Icon-1">
<path id="Vector" d="M20.3065 40.0205C20.3065 31.818 23.2393 24.2881 28.1104 18.4225L19.7516 18.4226C19.5251 18.4226 19.2982 18.3691 19.1067 18.248C18.6534 17.9614 18.4646 17.4312 18.5965 16.9478L22.7466 1.73672C23.0933 0.465675 21.4694 -0.387163 20.6198 0.619849L0.470777 24.5029C-0.616115 25.7912 0.29966 27.762 1.98521 27.762L15.6074 27.7622C15.8263 27.7622 16.0456 27.8116 16.233 27.9248C16.6792 28.1945 16.8817 28.702 16.7771 29.1795L12.2566 49.8141C11.8647 51.6031 14.049 52.798 15.3442 51.5031L20.3065 46.5416L20.3065 40.0205Z" fill="#ED1B24"/>
<path id="Vector_2" d="M26.1196 44.0651L24.3269 45.8577H40.737C41.3819 45.8577 41.9045 46.3804 41.9045 47.0252C41.9045 47.67 41.3818 48.1927 40.737 48.1927H24.2925L26.1196 50.0197C33.8577 57.7581 46.4489 57.7581 54.187 50.0197L57.1644 47.0424L54.187 44.0651C46.4489 36.3268 33.8577 36.3268 26.1196 44.0651Z" fill="#ED1B24"/>
<path id="Vector_3" d="M59.9999 14.3365V8.49918H54.1627C36.7818 8.49918 22.6414 22.6396 22.6414 40.0205V44.2411L23.9999 42.8826C24.043 42.8171 24.0932 42.7549 24.1508 42.6973L45.4568 21.3913C45.9127 20.9354 46.652 20.9354 47.1078 21.3913C47.5638 21.8472 47.5638 22.5864 47.1078 23.0423L33.0664 37.0837C38.3796 35.3016 44.2377 35.5824 49.3786 37.9268C56.1375 31.945 59.9999 23.3903 59.9999 14.3365Z" fill="#ED1B24"/>
</g>
</svg>
