<svg width="24" height="23" viewBox="0 0 24 23" fill="none" xmlns="http://www.w3.org/2000/svg">
<g id="Footer/Instagram">
<path d="M7.34395 0H17.004C20.684 0 23.674 2.99 23.674 6.67V16.33C23.674 18.099 22.9712 19.7955 21.7204 21.0464C20.4695 22.2973 18.7729 23 17.004 23H7.34395C3.66395 23 0.67395 20.01 0.67395 16.33V6.67C0.67395 4.90101 1.37668 3.20447 2.62755 1.9536C3.87842 0.70273 5.57496 0 7.34395 0ZM7.11395 2.3C6.01595 2.3 4.96293 2.73618 4.18653 3.51258C3.41013 4.28898 2.97395 5.342 2.97395 6.44V16.56C2.97395 18.8485 4.82545 20.7 7.11395 20.7H17.2339C18.3319 20.7 19.385 20.2638 20.1614 19.4874C20.9378 18.711 21.3739 17.658 21.3739 16.56V6.44C21.3739 4.1515 19.5224 2.3 17.2339 2.3H7.11395ZM18.2115 4.025C18.5927 4.025 18.9583 4.17645 19.2279 4.44603C19.4975 4.71562 19.649 5.08125 19.649 5.4625C19.649 5.84375 19.4975 6.20938 19.2279 6.47897C18.9583 6.74855 18.5927 6.9 18.2115 6.9C17.8302 6.9 17.4646 6.74855 17.195 6.47897C16.9254 6.20938 16.774 5.84375 16.774 5.4625C16.774 5.08125 16.9254 4.71562 17.195 4.44603C17.4646 4.17645 17.8302 4.025 18.2115 4.025ZM12.174 5.75C13.6989 5.75 15.1615 6.3558 16.2398 7.43414C17.3181 8.51247 17.924 9.97501 17.924 11.5C17.924 13.025 17.3181 14.4875 16.2398 15.5659C15.1615 16.6442 13.6989 17.25 12.174 17.25C10.649 17.25 9.18642 16.6442 8.10809 15.5659C7.02975 14.4875 6.42395 13.025 6.42395 11.5C6.42395 9.97501 7.02975 8.51247 8.10809 7.43414C9.18642 6.3558 10.649 5.75 12.174 5.75ZM12.174 8.05C11.259 8.05 10.3814 8.41348 9.73443 9.06048C9.08743 9.70748 8.72395 10.585 8.72395 11.5C8.72395 12.415 9.08743 13.2925 9.73443 13.9395C10.3814 14.5865 11.259 14.95 12.174 14.95C13.0889 14.95 13.9665 14.5865 14.6135 13.9395C15.2605 13.2925 15.624 12.415 15.624 11.5C15.624 10.585 15.2605 9.70748 14.6135 9.06048C13.9665 8.41348 13.0889 8.05 12.174 8.05Z" fill="#58585A"/>
<path d="M7.34395 0H17.004C20.684 0 23.674 2.99 23.674 6.67V16.33C23.674 18.099 22.9712 19.7955 21.7204 21.0464C20.4695 22.2973 18.7729 23 17.004 23H7.34395C3.66395 23 0.67395 20.01 0.67395 16.33V6.67C0.67395 4.90101 1.37668 3.20447 2.62755 1.9536C3.87842 0.70273 5.57496 0 7.34395 0ZM7.11395 2.3C6.01595 2.3 4.96293 2.73618 4.18653 3.51258C3.41013 4.28898 2.97395 5.342 2.97395 6.44V16.56C2.97395 18.8485 4.82545 20.7 7.11395 20.7H17.2339C18.3319 20.7 19.385 20.2638 20.1614 19.4874C20.9378 18.711 21.3739 17.658 21.3739 16.56V6.44C21.3739 4.1515 19.5224 2.3 17.2339 2.3H7.11395ZM18.2115 4.025C18.5927 4.025 18.9583 4.17645 19.2279 4.44603C19.4975 4.71562 19.649 5.08125 19.649 5.4625C19.649 5.84375 19.4975 6.20938 19.2279 6.47897C18.9583 6.74855 18.5927 6.9 18.2115 6.9C17.8302 6.9 17.4646 6.74855 17.195 6.47897C16.9254 6.20938 16.774 5.84375 16.774 5.4625C16.774 5.08125 16.9254 4.71562 17.195 4.44603C17.4646 4.17645 17.8302 4.025 18.2115 4.025ZM12.174 5.75C13.6989 5.75 15.1615 6.3558 16.2398 7.43414C17.3181 8.51247 17.924 9.97501 17.924 11.5C17.924 13.025 17.3181 14.4875 16.2398 15.5659C15.1615 16.6442 13.6989 17.25 12.174 17.25C10.649 17.25 9.18642 16.6442 8.10809 15.5659C7.02975 14.4875 6.42395 13.025 6.42395 11.5C6.42395 9.97501 7.02975 8.51247 8.10809 7.43414C9.18642 6.3558 10.649 5.75 12.174 5.75ZM12.174 8.05C11.259 8.05 10.3814 8.41348 9.73443 9.06048C9.08743 9.70748 8.72395 10.585 8.72395 11.5C8.72395 12.415 9.08743 13.2925 9.73443 13.9395C10.3814 14.5865 11.259 14.95 12.174 14.95C13.0889 14.95 13.9665 14.5865 14.6135 13.9395C15.2605 13.2925 15.624 12.415 15.624 11.5C15.624 10.585 15.2605 9.70748 14.6135 9.06048C13.9665 8.41348 13.0889 8.05 12.174 8.05Z" fill="black" fill-opacity="0.2"/>
<path d="M7.34395 0H17.004C20.684 0 23.674 2.99 23.674 6.67V16.33C23.674 18.099 22.9712 19.7955 21.7204 21.0464C20.4695 22.2973 18.7729 23 17.004 23H7.34395C3.66395 23 0.67395 20.01 0.67395 16.33V6.67C0.67395 4.90101 1.37668 3.20447 2.62755 1.9536C3.87842 0.70273 5.57496 0 7.34395 0ZM7.11395 2.3C6.01595 2.3 4.96293 2.73618 4.18653 3.51258C3.41013 4.28898 2.97395 5.342 2.97395 6.44V16.56C2.97395 18.8485 4.82545 20.7 7.11395 20.7H17.2339C18.3319 20.7 19.385 20.2638 20.1614 19.4874C20.9378 18.711 21.3739 17.658 21.3739 16.56V6.44C21.3739 4.1515 19.5224 2.3 17.2339 2.3H7.11395ZM18.2115 4.025C18.5927 4.025 18.9583 4.17645 19.2279 4.44603C19.4975 4.71562 19.649 5.08125 19.649 5.4625C19.649 5.84375 19.4975 6.20938 19.2279 6.47897C18.9583 6.74855 18.5927 6.9 18.2115 6.9C17.8302 6.9 17.4646 6.74855 17.195 6.47897C16.9254 6.20938 16.774 5.84375 16.774 5.4625C16.774 5.08125 16.9254 4.71562 17.195 4.44603C17.4646 4.17645 17.8302 4.025 18.2115 4.025ZM12.174 5.75C13.6989 5.75 15.1615 6.3558 16.2398 7.43414C17.3181 8.51247 17.924 9.97501 17.924 11.5C17.924 13.025 17.3181 14.4875 16.2398 15.5659C15.1615 16.6442 13.6989 17.25 12.174 17.25C10.649 17.25 9.18642 16.6442 8.10809 15.5659C7.02975 14.4875 6.42395 13.025 6.42395 11.5C6.42395 9.97501 7.02975 8.51247 8.10809 7.43414C9.18642 6.3558 10.649 5.75 12.174 5.75ZM12.174 8.05C11.259 8.05 10.3814 8.41348 9.73443 9.06048C9.08743 9.70748 8.72395 10.585 8.72395 11.5C8.72395 12.415 9.08743 13.2925 9.73443 13.9395C10.3814 14.5865 11.259 14.95 12.174 14.95C13.0889 14.95 13.9665 14.5865 14.6135 13.9395C15.2605 13.2925 15.624 12.415 15.624 11.5C15.624 10.585 15.2605 9.70748 14.6135 9.06048C13.9665 8.41348 13.0889 8.05 12.174 8.05Z" fill="black" fill-opacity="0.2"/>
<path d="M7.34395 0H17.004C20.684 0 23.674 2.99 23.674 6.67V16.33C23.674 18.099 22.9712 19.7955 21.7204 21.0464C20.4695 22.2973 18.7729 23 17.004 23H7.34395C3.66395 23 0.67395 20.01 0.67395 16.33V6.67C0.67395 4.90101 1.37668 3.20447 2.62755 1.9536C3.87842 0.70273 5.57496 0 7.34395 0ZM7.11395 2.3C6.01595 2.3 4.96293 2.73618 4.18653 3.51258C3.41013 4.28898 2.97395 5.342 2.97395 6.44V16.56C2.97395 18.8485 4.82545 20.7 7.11395 20.7H17.2339C18.3319 20.7 19.385 20.2638 20.1614 19.4874C20.9378 18.711 21.3739 17.658 21.3739 16.56V6.44C21.3739 4.1515 19.5224 2.3 17.2339 2.3H7.11395ZM18.2115 4.025C18.5927 4.025 18.9583 4.17645 19.2279 4.44603C19.4975 4.71562 19.649 5.08125 19.649 5.4625C19.649 5.84375 19.4975 6.20938 19.2279 6.47897C18.9583 6.74855 18.5927 6.9 18.2115 6.9C17.8302 6.9 17.4646 6.74855 17.195 6.47897C16.9254 6.20938 16.774 5.84375 16.774 5.4625C16.774 5.08125 16.9254 4.71562 17.195 4.44603C17.4646 4.17645 17.8302 4.025 18.2115 4.025ZM12.174 5.75C13.6989 5.75 15.1615 6.3558 16.2398 7.43414C17.3181 8.51247 17.924 9.97501 17.924 11.5C17.924 13.025 17.3181 14.4875 16.2398 15.5659C15.1615 16.6442 13.6989 17.25 12.174 17.25C10.649 17.25 9.18642 16.6442 8.10809 15.5659C7.02975 14.4875 6.42395 13.025 6.42395 11.5C6.42395 9.97501 7.02975 8.51247 8.10809 7.43414C9.18642 6.3558 10.649 5.75 12.174 5.75ZM12.174 8.05C11.259 8.05 10.3814 8.41348 9.73443 9.06048C9.08743 9.70748 8.72395 10.585 8.72395 11.5C8.72395 12.415 9.08743 13.2925 9.73443 13.9395C10.3814 14.5865 11.259 14.95 12.174 14.95C13.0889 14.95 13.9665 14.5865 14.6135 13.9395C15.2605 13.2925 15.624 12.415 15.624 11.5C15.624 10.585 15.2605 9.70748 14.6135 9.06048C13.9665 8.41348 13.0889 8.05 12.174 8.05Z" fill="black" fill-opacity="0.2"/>
</g>
</svg>
