<svg width="26" height="23" viewBox="0 0 26 23" fill="none" xmlns="http://www.w3.org/2000/svg">
<g id="Footer/Twitter-X">
<g id="Vector">
<path d="M20.5944 0H24.4962L15.972 9.74257L26 23H18.147L11.9971 14.9594L4.96032 23H1.05621L10.1736 12.5792L0.554932 0H8.60493L14.1639 7.34938L20.5944 0ZM19.225 20.6646H21.387L7.43134 2.21272H5.11129L19.225 20.6646Z" fill="#58585A"/>
<path d="M20.5944 0H24.4962L15.972 9.74257L26 23H18.147L11.9971 14.9594L4.96032 23H1.05621L10.1736 12.5792L0.554932 0H8.60493L14.1639 7.34938L20.5944 0ZM19.225 20.6646H21.387L7.43134 2.21272H5.11129L19.225 20.6646Z" fill="black" fill-opacity="0.2"/>
<path d="M20.5944 0H24.4962L15.972 9.74257L26 23H18.147L11.9971 14.9594L4.96032 23H1.05621L10.1736 12.5792L0.554932 0H8.60493L14.1639 7.34938L20.5944 0ZM19.225 20.6646H21.387L7.43134 2.21272H5.11129L19.225 20.6646Z" fill="black" fill-opacity="0.2"/>
<path d="M20.5944 0H24.4962L15.972 9.74257L26 23H18.147L11.9971 14.9594L4.96032 23H1.05621L10.1736 12.5792L0.554932 0H8.60493L14.1639 7.34938L20.5944 0ZM19.225 20.6646H21.387L7.43134 2.21272H5.11129L19.225 20.6646Z" fill="black" fill-opacity="0.2"/>
</g>
</g>
</svg>
