<svg width="24" height="23" viewBox="0 0 24 23" fill="none" xmlns="http://www.w3.org/2000/svg">
<g id="Footer/Facebook">
<g id="Vector">
<path d="M23.6501 11.5703C23.6501 5.18023 18.4699 0 12.0798 0C5.68975 0 0.509521 5.18014 0.509521 11.5703C0.509521 17.3453 4.74063 22.132 10.2719 23V14.9148H7.33418V11.5703H10.2719V9.0212C10.2719 6.1214 11.9994 4.51964 14.6422 4.51964C15.9081 4.51964 17.2322 4.74562 17.2322 4.74562V7.593H15.7733C14.3358 7.593 13.8877 8.4849 13.8877 9.39995V11.5703H17.0966L16.5836 14.9148H13.8877V23C19.419 22.132 23.6501 17.3454 23.6501 11.5703Z" fill="#58585A"/>
<path d="M23.6501 11.5703C23.6501 5.18023 18.4699 0 12.0798 0C5.68975 0 0.509521 5.18014 0.509521 11.5703C0.509521 17.3453 4.74063 22.132 10.2719 23V14.9148H7.33418V11.5703H10.2719V9.0212C10.2719 6.1214 11.9994 4.51964 14.6422 4.51964C15.9081 4.51964 17.2322 4.74562 17.2322 4.74562V7.593H15.7733C14.3358 7.593 13.8877 8.4849 13.8877 9.39995V11.5703H17.0966L16.5836 14.9148H13.8877V23C19.419 22.132 23.6501 17.3454 23.6501 11.5703Z" fill="black" fill-opacity="0.2"/>
<path d="M23.6501 11.5703C23.6501 5.18023 18.4699 0 12.0798 0C5.68975 0 0.509521 5.18014 0.509521 11.5703C0.509521 17.3453 4.74063 22.132 10.2719 23V14.9148H7.33418V11.5703H10.2719V9.0212C10.2719 6.1214 11.9994 4.51964 14.6422 4.51964C15.9081 4.51964 17.2322 4.74562 17.2322 4.74562V7.593H15.7733C14.3358 7.593 13.8877 8.4849 13.8877 9.39995V11.5703H17.0966L16.5836 14.9148H13.8877V23C19.419 22.132 23.6501 17.3454 23.6501 11.5703Z" fill="black" fill-opacity="0.2"/>
<path d="M23.6501 11.5703C23.6501 5.18023 18.4699 0 12.0798 0C5.68975 0 0.509521 5.18014 0.509521 11.5703C0.509521 17.3453 4.74063 22.132 10.2719 23V14.9148H7.33418V11.5703H10.2719V9.0212C10.2719 6.1214 11.9994 4.51964 14.6422 4.51964C15.9081 4.51964 17.2322 4.74562 17.2322 4.74562V7.593H15.7733C14.3358 7.593 13.8877 8.4849 13.8877 9.39995V11.5703H17.0966L16.5836 14.9148H13.8877V23C19.419 22.132 23.6501 17.3454 23.6501 11.5703Z" fill="black" fill-opacity="0.2"/>
</g>
</g>
</svg>
