<svg width="24" height="23" viewBox="0 0 24 23" fill="none" xmlns="http://www.w3.org/2000/svg">
<g id="Footer/Linkedin">
<path d="M20.6064 0C21.2842 0 21.9342 0.269245 22.4135 0.748505C22.8927 1.22776 23.162 1.87778 23.162 2.55556V20.4444C23.162 21.1222 22.8927 21.7722 22.4135 22.2515C21.9342 22.7308 21.2842 23 20.6064 23H2.71754C2.03977 23 1.38975 22.7308 0.910492 22.2515C0.431232 21.7722 0.161987 21.1222 0.161987 20.4444V2.55556C0.161987 1.87778 0.431232 1.22776 0.910492 0.748505C1.38975 0.269245 2.03977 0 2.71754 0H20.6064ZM19.9675 19.8056V13.0333C19.9675 11.9286 19.5287 10.869 18.7475 10.0878C17.9663 9.30665 16.9068 8.86778 15.802 8.86778C14.7159 8.86778 13.4509 9.53222 12.8375 10.5289V9.11056H9.27254V19.8056H12.8375V13.5061C12.8375 12.5222 13.6298 11.7172 14.6137 11.7172C15.0881 11.7172 15.5431 11.9057 15.8786 12.2412C16.2141 12.5767 16.4025 13.0317 16.4025 13.5061V19.8056H19.9675ZM5.11977 7.10444C5.6891 7.10444 6.23511 6.87828 6.63769 6.4757C7.04027 6.07312 7.26643 5.52711 7.26643 4.95778C7.26643 3.76944 6.3081 2.79833 5.11977 2.79833C4.54705 2.79833 3.99778 3.02585 3.59281 3.43082C3.18783 3.83579 2.96032 4.38506 2.96032 4.95778C2.96032 6.14611 3.93143 7.10444 5.11977 7.10444ZM6.89588 19.8056V9.11056H3.35643V19.8056H6.89588Z" fill="#58585A"/>
<path d="M20.6064 0C21.2842 0 21.9342 0.269245 22.4135 0.748505C22.8927 1.22776 23.162 1.87778 23.162 2.55556V20.4444C23.162 21.1222 22.8927 21.7722 22.4135 22.2515C21.9342 22.7308 21.2842 23 20.6064 23H2.71754C2.03977 23 1.38975 22.7308 0.910492 22.2515C0.431232 21.7722 0.161987 21.1222 0.161987 20.4444V2.55556C0.161987 1.87778 0.431232 1.22776 0.910492 0.748505C1.38975 0.269245 2.03977 0 2.71754 0H20.6064ZM19.9675 19.8056V13.0333C19.9675 11.9286 19.5287 10.869 18.7475 10.0878C17.9663 9.30665 16.9068 8.86778 15.802 8.86778C14.7159 8.86778 13.4509 9.53222 12.8375 10.5289V9.11056H9.27254V19.8056H12.8375V13.5061C12.8375 12.5222 13.6298 11.7172 14.6137 11.7172C15.0881 11.7172 15.5431 11.9057 15.8786 12.2412C16.2141 12.5767 16.4025 13.0317 16.4025 13.5061V19.8056H19.9675ZM5.11977 7.10444C5.6891 7.10444 6.23511 6.87828 6.63769 6.4757C7.04027 6.07312 7.26643 5.52711 7.26643 4.95778C7.26643 3.76944 6.3081 2.79833 5.11977 2.79833C4.54705 2.79833 3.99778 3.02585 3.59281 3.43082C3.18783 3.83579 2.96032 4.38506 2.96032 4.95778C2.96032 6.14611 3.93143 7.10444 5.11977 7.10444ZM6.89588 19.8056V9.11056H3.35643V19.8056H6.89588Z" fill="black" fill-opacity="0.2"/>
<path d="M20.6064 0C21.2842 0 21.9342 0.269245 22.4135 0.748505C22.8927 1.22776 23.162 1.87778 23.162 2.55556V20.4444C23.162 21.1222 22.8927 21.7722 22.4135 22.2515C21.9342 22.7308 21.2842 23 20.6064 23H2.71754C2.03977 23 1.38975 22.7308 0.910492 22.2515C0.431232 21.7722 0.161987 21.1222 0.161987 20.4444V2.55556C0.161987 1.87778 0.431232 1.22776 0.910492 0.748505C1.38975 0.269245 2.03977 0 2.71754 0H20.6064ZM19.9675 19.8056V13.0333C19.9675 11.9286 19.5287 10.869 18.7475 10.0878C17.9663 9.30665 16.9068 8.86778 15.802 8.86778C14.7159 8.86778 13.4509 9.53222 12.8375 10.5289V9.11056H9.27254V19.8056H12.8375V13.5061C12.8375 12.5222 13.6298 11.7172 14.6137 11.7172C15.0881 11.7172 15.5431 11.9057 15.8786 12.2412C16.2141 12.5767 16.4025 13.0317 16.4025 13.5061V19.8056H19.9675ZM5.11977 7.10444C5.6891 7.10444 6.23511 6.87828 6.63769 6.4757C7.04027 6.07312 7.26643 5.52711 7.26643 4.95778C7.26643 3.76944 6.3081 2.79833 5.11977 2.79833C4.54705 2.79833 3.99778 3.02585 3.59281 3.43082C3.18783 3.83579 2.96032 4.38506 2.96032 4.95778C2.96032 6.14611 3.93143 7.10444 5.11977 7.10444ZM6.89588 19.8056V9.11056H3.35643V19.8056H6.89588Z" fill="black" fill-opacity="0.2"/>
<path d="M20.6064 0C21.2842 0 21.9342 0.269245 22.4135 0.748505C22.8927 1.22776 23.162 1.87778 23.162 2.55556V20.4444C23.162 21.1222 22.8927 21.7722 22.4135 22.2515C21.9342 22.7308 21.2842 23 20.6064 23H2.71754C2.03977 23 1.38975 22.7308 0.910492 22.2515C0.431232 21.7722 0.161987 21.1222 0.161987 20.4444V2.55556C0.161987 1.87778 0.431232 1.22776 0.910492 0.748505C1.38975 0.269245 2.03977 0 2.71754 0H20.6064ZM19.9675 19.8056V13.0333C19.9675 11.9286 19.5287 10.869 18.7475 10.0878C17.9663 9.30665 16.9068 8.86778 15.802 8.86778C14.7159 8.86778 13.4509 9.53222 12.8375 10.5289V9.11056H9.27254V19.8056H12.8375V13.5061C12.8375 12.5222 13.6298 11.7172 14.6137 11.7172C15.0881 11.7172 15.5431 11.9057 15.8786 12.2412C16.2141 12.5767 16.4025 13.0317 16.4025 13.5061V19.8056H19.9675ZM5.11977 7.10444C5.6891 7.10444 6.23511 6.87828 6.63769 6.4757C7.04027 6.07312 7.26643 5.52711 7.26643 4.95778C7.26643 3.76944 6.3081 2.79833 5.11977 2.79833C4.54705 2.79833 3.99778 3.02585 3.59281 3.43082C3.18783 3.83579 2.96032 4.38506 2.96032 4.95778C2.96032 6.14611 3.93143 7.10444 5.11977 7.10444ZM6.89588 19.8056V9.11056H3.35643V19.8056H6.89588Z" fill="black" fill-opacity="0.2"/>
</g>
</svg>
